<svg width="47" height="56" viewBox="0 0 47 56" fill="none" xmlns="http://www.w3.org/2000/svg">
<path fill-rule="evenodd" clip-rule="evenodd" d="M23.6203 0.901869C20.0013 0.897049 16.5024 2.20028 13.7684 4.57145C11.0344 6.94262 9.24941 10.222 8.74233 13.8053C8.23526 17.3886 9.04025 21.0345 11.009 24.0711C12.9777 27.1078 15.9776 29.3307 19.4559 30.3302C14.5132 30.9304 10.2743 32.6773 7.0785 35.8275C3.01343 39.8305 0.956055 45.7957 0.956055 53.5781C0.956055 54.0996 1.16322 54.5997 1.53197 54.9685C1.90072 55.3372 2.40086 55.5444 2.92236 55.5444C3.44385 55.5444 3.94399 55.3372 4.31274 54.9685C4.6815 54.5997 4.88866 54.0996 4.88866 53.5781C4.88866 46.458 6.76389 41.6561 9.8396 38.6259C12.9195 35.5916 17.5227 34.0185 23.6203 34.0185C29.7179 34.0185 34.3211 35.5916 37.4051 38.6259C40.4767 41.6602 42.3519 46.458 42.3519 53.5781C42.3519 54.0996 42.5591 54.5997 42.9278 54.9685C43.2966 55.3372 43.7967 55.5444 44.3182 55.5444C44.8397 55.5444 45.3398 55.3372 45.7086 54.9685C46.0774 54.5997 46.2845 54.0996 46.2845 53.5781C46.2845 45.7957 44.2271 39.8347 40.1579 35.8275C36.9704 32.6815 32.7274 30.9304 27.7847 30.3302C31.2513 29.3194 34.2376 27.0931 36.1961 24.0594C38.1546 21.0257 38.9541 17.3877 38.4482 13.8124C37.9422 10.237 36.1647 6.96375 33.4413 4.59255C30.718 2.22135 27.2313 0.911073 23.6203 0.901869ZM12.5469 15.9079C12.5469 12.971 13.7136 10.1545 15.7902 8.0778C17.8669 6.00113 20.6834 4.83447 23.6203 4.83447C26.5571 4.83447 29.3737 6.00113 31.4504 8.0778C33.527 10.1545 34.6937 12.971 34.6937 15.9079C34.6937 18.8447 33.527 21.6613 31.4504 23.7379C29.3737 25.8146 26.5571 26.9813 23.6203 26.9813C20.6834 26.9813 17.8669 25.8146 15.7902 23.7379C13.7136 21.6613 12.5469 18.8447 12.5469 15.9079Z" fill="black"/>
</svg>
